# Blender v2.79 (sub 0) OBJ File: 'enemy.blend'
# www.blender.org
mtllib enemy.mtl
o Sphere
v 0.270598 0.923880 -0.270598
v 0.500000 0.707107 -0.500000
v 0.653281 0.382683 -0.653282
v 0.707107 -0.000000 -0.707107
v 0.653281 -0.382684 -0.653282
v 0.500000 -0.707107 -0.500000
v 0.270598 -0.923880 -0.270598
v 0.564518 -1.557405 -0.601958
v 0.709629 -1.460445 -0.601958
v 0.616992 -1.460445 -0.825602
v 0.514384 -1.557405 -0.722993
v 0.651000 0.993507 -0.251030
v 0.488403 1.102150 -0.251030
v 0.432227 1.102150 -0.386650
v 0.547201 0.993507 -0.501624
v 0.501624 0.993507 -0.547201
v 0.386650 1.102150 -0.432227
v 0.251030 1.102150 -0.488403
v 0.251030 0.993507 -0.651000
v 0.270598 0.923880 0.270598
v 0.500000 0.707107 0.500000
v 0.653281 0.382683 0.653282
v 0.707107 -0.000000 0.707107
v 0.653281 -0.382684 0.653282
v 0.500000 -0.707107 0.500000
v 0.270598 -0.923880 0.270598
v 0.382683 0.923880 0.000000
v 0.707107 0.707107 0.000000
v 0.923879 0.382683 0.000000
v 1.000000 -0.000000 0.000000
v 0.923879 -0.382684 0.000000
v 0.707107 -0.707107 0.000000
v 0.382683 -0.923880 0.000000
v 0.564518 -1.557405 0.601958
v 0.709629 -1.460445 0.601958
v 0.616992 -1.460445 0.825602
v 0.514384 -1.557405 0.722993
v 0.651000 0.993507 0.251030
v 0.488403 1.102150 0.251030
v 0.432227 1.102150 0.386650
v 0.547201 0.993507 0.501624
v 0.501624 0.993507 0.547201
v 0.386650 1.102150 0.432227
v 0.251030 1.102150 0.488403
v 0.251030 0.993507 0.651000
v 1.038701 0.153325 -0.629909
v 1.012755 0.337792 -0.603963
v 1.143193 0.337792 -0.289060
v 1.179885 0.153325 -0.289060
v 0.366650 0.196431 1.158591
v 0.559987 0.196431 1.078508
v 0.545270 0.301064 1.063791
v 0.366650 0.301064 1.137778
v 1.114057 -0.308162 0.561150
v 1.184551 -0.308162 0.390964
v 1.204381 -0.208469 0.390964
v 1.128079 -0.208469 0.575172
v 0.810223 -0.709764 -0.424099
v 0.856535 -0.611744 -0.470411
v 0.938292 -0.611744 -0.273031
v 0.872797 -0.709764 -0.273031
v 0.000000 -0.000000 -1.000000
v -0.270598 0.923880 -0.270598
v -0.500000 0.707107 -0.500000
v -0.653281 0.382683 -0.653282
v -0.707107 -0.000000 -0.707107
v -0.653281 -0.382684 -0.653282
v -0.500000 -0.707107 -0.500000
v -0.270598 -0.923880 -0.270598
v -0.564518 -1.557405 -0.601958
v -0.709629 -1.460445 -0.601958
v -0.616992 -1.460445 -0.825602
v -0.514384 -1.557405 -0.722993
v -0.651000 0.993507 -0.251030
v -0.488403 1.102150 -0.251030
v -0.432227 1.102150 -0.386650
v -0.547201 0.993507 -0.501624
v -0.501624 0.993507 -0.547201
v -0.386650 1.102150 -0.432227
v -0.251030 1.102150 -0.488403
v -0.251030 0.993507 -0.651000
v 0.000000 0.923880 -0.382683
v 0.000000 0.707107 -0.707107
v 0.000000 0.382683 -0.923879
v 0.000000 -0.382684 -0.923879
v 0.000000 -0.707107 -0.707107
v 0.000000 -0.923880 -0.382683
v 0.000000 -0.000000 1.000000
v 0.000000 1.000000 0.000000
v -0.270598 0.923880 0.270598
v -0.500000 0.707107 0.500000
v -0.653281 0.382683 0.653282
v -0.707107 -0.000000 0.707107
v -0.653281 -0.382684 0.653282
v -0.500000 -0.707107 0.500000
v -0.270598 -0.923880 0.270598
v -0.382683 0.923880 0.000000
v -0.707107 0.707107 0.000000
v -0.923879 0.382683 0.000000
v -1.000000 -0.000000 0.000000
v -0.923879 -0.382684 0.000000
v -0.707107 -0.707107 0.000000
v -0.382683 -0.923880 0.000000
v 0.000000 -1.000000 0.000000
v -0.564518 -1.557405 0.601958
v -0.709629 -1.460445 0.601958
v -0.616992 -1.460445 0.825602
v -0.514384 -1.557405 0.722993
v -0.651000 0.993507 0.251030
v -0.488403 1.102150 0.251030
v -0.432227 1.102150 0.386650
v -0.547201 0.993507 0.501624
v -0.501624 0.993507 0.547201
v -0.386650 1.102150 0.432227
v -0.251030 1.102150 0.488403
v -0.251030 0.993507 0.651000
v 0.000000 0.923880 0.382683
v 0.000000 0.707107 0.707107
v 0.000000 0.382683 0.923879
v 0.000000 -0.382684 0.923879
v 0.000000 -0.707107 0.707107
v 0.000000 -0.923880 0.382683
v -1.038701 0.153325 -0.629909
v -1.012755 0.337792 -0.603963
v -1.143193 0.337792 -0.289060
v -1.179885 0.153325 -0.289060
v -0.366650 0.196431 1.158591
v -0.559987 0.196431 1.078508
v -0.545270 0.301064 1.063791
v -0.366650 0.301064 1.137778
v -1.114057 -0.308162 0.561150
v -1.184551 -0.308162 0.390964
v -1.204381 -0.208469 0.390964
v -1.128079 -0.208469 0.575172
v -0.810223 -0.709764 -0.424099
v -0.856535 -0.611744 -0.470411
v -0.938292 -0.611744 -0.273031
v -0.872797 -0.709764 -0.273031
vn 0.0805 -0.9776 -0.1945
vn 0.3256 -0.5253 -0.7862
vn 0.3764 0.1807 -0.9087
vn -0.7666 0.1507 -0.6242
vn 0.2243 -0.8103 -0.5414
vn 0.3764 -0.1807 -0.9087
vn 0.3256 0.5253 -0.7862
vn 0.0805 0.9776 -0.1945
vn 0.9087 -0.1807 -0.3764
vn 0.7862 0.5253 -0.3256
vn 0.1945 0.9776 -0.0805
vn 0.1945 -0.9776 -0.0805
vn 0.3764 0.1807 0.9087
vn 0.5414 -0.8103 -0.2243
vn -0.7821 -0.5323 0.3240
vn 0.3845 -0.5755 0.7218
vn 0.8827 0.2951 -0.3656
vn 0.9131 -0.1526 -0.3782
vn 0.4287 0.6415 0.6361
vn -0.6256 0.7359 0.2591
vn -0.6528 0.1033 -0.7504
vn 0.5414 0.8103 -0.2243
vn 0.3782 -0.1526 -0.9131
vn 0.7504 0.1033 0.6528
vn -0.2591 0.7359 0.6256
vn -0.6361 0.6415 -0.4287
vn 0.2243 0.8103 -0.5414
vn 0.0805 -0.9776 0.1945
vn 0.3256 -0.5253 0.7862
vn 0.9087 -0.1807 0.3764
vn -0.7666 0.1507 0.6242
vn 0.2243 -0.8103 0.5414
vn 0.3764 -0.1807 0.9087
vn 0.3256 0.5253 0.7862
vn 0.0805 0.9776 0.1945
vn 0.7862 -0.5253 -0.3256
vn 0.7862 0.5253 0.3256
vn 0.1945 0.9776 0.0805
vn 0.1945 -0.9776 0.0805
vn 0.7862 -0.5253 0.3256
vn 0.9087 0.1807 0.3764
vn 0.5414 -0.8103 0.2243
vn -0.7821 -0.5323 -0.3240
vn 0.3845 -0.5755 -0.7218
vn 0.8827 0.2951 0.3656
vn 0.9131 -0.1526 0.3782
vn 0.4287 0.6415 -0.6361
vn -0.6256 0.7359 -0.2591
vn -0.6528 0.1033 0.7504
vn 0.5414 0.8103 0.2243
vn 0.3782 -0.1526 0.9131
vn 0.7504 0.1033 -0.6528
vn -0.2591 0.7359 -0.6256
vn -0.6361 0.6415 0.4287
vn 0.2243 0.8103 0.5414
vn 0.9087 0.1807 -0.3764
vn 0.1536 0.1588 -0.9753
vn 0.1311 0.9899 -0.0543
vn 0.7983 0.1588 0.5810
vn 0.4477 -0.8748 -0.1854
vn 0.2162 -0.8251 0.5220
vn 0.9436 0.1725 0.2826
vn 0.0898 0.9720 0.2169
vn -0.4674 0.1725 0.8670
vn 0.1732 -0.9823 0.0717
vn 0.8348 -0.1660 -0.5249
vn 0.4845 0.8514 0.2007
vn 0.2191 -0.1660 0.9615
vn 0.2025 -0.4949 -0.8450
vn 0.8216 0.4573 -0.3403
vn 0.7407 -0.4949 0.4543
vn -0.0095 -0.9999 0.0039
vn -0.0805 -0.9776 -0.1945
vn -0.3256 -0.5253 -0.7862
vn -0.3764 0.1807 -0.9087
vn 0.7666 0.1507 -0.6242
vn -0.2243 -0.8103 -0.5414
vn -0.3764 -0.1807 -0.9087
vn -0.3256 0.5253 -0.7862
vn -0.0805 0.9776 -0.1945
vn -0.9087 -0.1807 -0.3764
vn -0.7862 0.5253 -0.3256
vn -0.1945 0.9776 -0.0805
vn -0.1945 -0.9776 -0.0805
vn -0.3764 0.1807 0.9087
vn -0.5414 -0.8103 -0.2243
vn 0.7821 -0.5323 0.3240
vn -0.3845 -0.5755 0.7218
vn -0.8827 0.2951 -0.3656
vn -0.9131 -0.1526 -0.3782
vn -0.4287 0.6415 0.6361
vn 0.6256 0.7359 0.2591
vn 0.6528 0.1033 -0.7504
vn -0.5414 0.8103 -0.2243
vn -0.3782 -0.1526 -0.9131
vn -0.7504 0.1033 0.6528
vn 0.2591 0.7359 0.6256
vn 0.6361 0.6415 -0.4287
vn -0.2243 0.8103 -0.5414
vn -0.0805 -0.9776 0.1945
vn -0.3256 -0.5253 0.7862
vn -0.9087 -0.1807 0.3764
vn 0.7666 0.1507 0.6242
vn -0.2243 -0.8103 0.5414
vn -0.3764 -0.1807 0.9087
vn -0.3256 0.5253 0.7862
vn -0.0805 0.9776 0.1945
vn -0.7862 -0.5253 -0.3256
vn -0.7862 0.5253 0.3256
vn -0.1945 0.9776 0.0805
vn -0.1945 -0.9776 0.0805
vn -0.7862 -0.5253 0.3256
vn -0.9087 0.1807 0.3764
vn -0.5414 -0.8103 0.2243
vn 0.7821 -0.5323 -0.3240
vn -0.3845 -0.5755 -0.7218
vn -0.8827 0.2951 0.3656
vn -0.9131 -0.1526 0.3782
vn -0.4287 0.6415 -0.6361
vn 0.6256 0.7359 -0.2591
vn 0.6528 0.1033 0.7504
vn -0.5414 0.8103 0.2243
vn -0.3782 -0.1526 0.9131
vn -0.7504 0.1033 -0.6528
vn 0.2591 0.7359 -0.6256
vn 0.6361 0.6415 0.4287
vn -0.2243 0.8103 0.5414
vn -0.9087 0.1807 -0.3764
vn -0.1536 0.1588 -0.9753
vn -0.1311 0.9899 -0.0543
vn -0.7983 0.1588 0.5810
vn -0.4477 -0.8748 -0.1854
vn -0.2162 -0.8251 0.5220
vn -0.9436 0.1725 0.2826
vn -0.0898 0.9720 0.2169
vn 0.4674 0.1725 0.8670
vn -0.1732 -0.9823 0.0717
vn -0.8348 -0.1660 -0.5249
vn -0.4845 0.8514 0.2007
vn -0.2191 -0.1660 0.9615
vn -0.2025 -0.4949 -0.8450
vn -0.8216 0.4573 -0.3403
vn -0.7407 -0.4949 0.4543
vn 0.0095 -0.9999 0.0039
usemtl None
s off
f 104//1 87//1 7//1
f 86//2 85//2 5//2 6//2
f 62//3 84//3 3//3 4//3
f 6//4 10//4 11//4 7//4
f 87//5 86//5 6//5 7//5
f 85//6 62//6 4//6 5//6
f 84//7 83//7 2//7 3//7
f 82//8 89//8 1//8
f 5//9 4//9 30//9 31//9
f 3//10 2//10 28//10 29//10
f 1//11 89//11 27//11
f 104//12 7//12 33//12
f 50//13 51//13 52//13 53//13
f 11//14 10//14 9//14 8//14
f 7//15 11//15 8//15 33//15
f 33//16 8//16 9//16 32//16
f 32//17 9//17 10//17 6//17
f 2//18 15//18 12//18 28//18
f 28//19 12//19 13//19 27//19
f 27//20 13//20 14//20 1//20
f 1//21 14//21 15//21 2//21
f 15//22 14//22 13//22 12//22
f 83//23 19//23 16//23 2//23
f 2//24 16//24 17//24 1//24
f 1//25 17//25 18//25 82//25
f 82//26 18//26 19//26 83//26
f 19//27 18//27 17//27 16//27
f 104//28 26//28 122//28
f 121//29 25//29 24//29 120//29
f 54//30 55//30 56//30 57//30
f 25//31 26//31 37//31 36//31
f 122//32 26//32 25//32 121//32
f 120//33 24//33 23//33 88//33
f 119//34 22//34 21//34 118//34
f 117//35 20//35 89//35
f 58//36 59//36 60//36 61//36
f 22//37 29//37 28//37 21//37
f 20//38 27//38 89//38
f 104//39 33//39 26//39
f 25//40 32//40 31//40 24//40
f 23//41 30//41 29//41 22//41
f 37//42 34//42 35//42 36//42
f 26//43 33//43 34//43 37//43
f 33//44 32//44 35//44 34//44
f 32//45 25//45 36//45 35//45
f 21//46 28//46 38//46 41//46
f 28//47 27//47 39//47 38//47
f 27//48 20//48 40//48 39//48
f 20//49 21//49 41//49 40//49
f 41//50 38//50 39//50 40//50
f 118//51 21//51 42//51 45//51
f 21//52 20//52 43//52 42//52
f 20//53 117//53 44//53 43//53
f 117//54 118//54 45//54 44//54
f 45//55 42//55 43//55 44//55
f 46//56 47//56 48//56 49//56
f 3//57 47//57 46//57 4//57
f 29//58 48//58 47//58 3//58
f 30//59 49//59 48//59 29//59
f 4//60 46//60 49//60 30//60
f 23//61 51//61 50//61 88//61
f 22//62 52//62 51//62 23//62
f 119//63 53//63 52//63 22//63
f 88//64 50//64 53//64 119//64
f 31//65 55//65 54//65 24//65
f 30//66 56//66 55//66 31//66
f 23//67 57//67 56//67 30//67
f 24//68 54//68 57//68 23//68
f 5//69 59//69 58//69 6//69
f 31//70 60//70 59//70 5//70
f 32//71 61//71 60//71 31//71
f 6//72 58//72 61//72 32//72
f 104//73 69//73 87//73
f 86//74 68//74 67//74 85//74
f 62//75 66//75 65//75 84//75
f 68//76 69//76 73//76 72//76
f 87//77 69//77 68//77 86//77
f 85//78 67//78 66//78 62//78
f 84//79 65//79 64//79 83//79
f 82//80 63//80 89//80
f 67//81 101//81 100//81 66//81
f 65//82 99//82 98//82 64//82
f 63//83 97//83 89//83
f 104//84 103//84 69//84
f 127//85 130//85 129//85 128//85
f 73//86 70//86 71//86 72//86
f 69//87 103//87 70//87 73//87
f 103//88 102//88 71//88 70//88
f 102//89 68//89 72//89 71//89
f 64//90 98//90 74//90 77//90
f 98//91 97//91 75//91 74//91
f 97//92 63//92 76//92 75//92
f 63//93 64//93 77//93 76//93
f 77//94 74//94 75//94 76//94
f 83//95 64//95 78//95 81//95
f 64//96 63//96 79//96 78//96
f 63//97 82//97 80//97 79//97
f 82//98 83//98 81//98 80//98
f 81//99 78//99 79//99 80//99
f 104//100 122//100 96//100
f 121//101 120//101 94//101 95//101
f 131//102 134//102 133//102 132//102
f 95//103 107//103 108//103 96//103
f 122//104 121//104 95//104 96//104
f 120//105 88//105 93//105 94//105
f 119//106 118//106 91//106 92//106
f 117//107 89//107 90//107
f 135//108 138//108 137//108 136//108
f 92//109 91//109 98//109 99//109
f 90//110 89//110 97//110
f 104//111 96//111 103//111
f 95//112 94//112 101//112 102//112
f 93//113 92//113 99//113 100//113
f 108//114 107//114 106//114 105//114
f 96//115 108//115 105//115 103//115
f 103//116 105//116 106//116 102//116
f 102//117 106//117 107//117 95//117
f 91//118 112//118 109//118 98//118
f 98//119 109//119 110//119 97//119
f 97//120 110//120 111//120 90//120
f 90//121 111//121 112//121 91//121
f 112//122 111//122 110//122 109//122
f 118//123 116//123 113//123 91//123
f 91//124 113//124 114//124 90//124
f 90//125 114//125 115//125 117//125
f 117//126 115//126 116//126 118//126
f 116//127 115//127 114//127 113//127
f 123//128 126//128 125//128 124//128
f 65//129 66//129 123//129 124//129
f 99//130 65//130 124//130 125//130
f 100//131 99//131 125//131 126//131
f 66//132 100//132 126//132 123//132
f 93//133 88//133 127//133 128//133
f 92//134 93//134 128//134 129//134
f 119//135 92//135 129//135 130//135
f 88//136 119//136 130//136 127//136
f 101//137 94//137 131//137 132//137
f 100//138 101//138 132//138 133//138
f 93//139 100//139 133//139 134//139
f 94//140 93//140 134//140 131//140
f 67//141 68//141 135//141 136//141
f 101//142 67//142 136//142 137//142
f 102//143 101//143 137//143 138//143
f 68//144 102//144 138//144 135//144
