# Blender v2.79 (sub 0) OBJ File: ''
# www.blender.org
mtllib test.mtl
o Plane
v 0.611401 -0.778377 -0.739605
v 0.865178 -0.220213 -0.960218
v 0.812893 -0.778377 -0.503528
v 1.066669 -0.220213 -0.642854
v 0.501227 -1.025009 -0.447196
v 0.442449 -1.025009 -0.516063
v 0.000000 -0.778377 -0.797305
v -0.611401 -0.778377 -0.739605
v -0.865178 -0.220213 -0.960218
v 0.000000 -0.220213 -1.017918
v -0.812893 -0.778377 -0.503528
v -1.066669 -0.220213 -0.642854
v 0.000000 -1.025009 -0.447196
v -0.501227 -1.025009 -0.447196
v -0.442449 -1.025009 -0.516063
v 0.000000 -1.025009 -0.532895
v 0.812893 -0.778377 0.000000
v 0.611401 -0.778377 0.739605
v 0.865178 -0.220213 0.960218
v 1.066669 -0.220213 0.000000
v 0.812893 -0.778377 0.503528
v 1.066669 -0.220213 0.642854
v 0.501227 -1.025009 0.000000
v 0.501227 -1.025009 0.447196
v 0.442449 -1.025009 0.516063
v -0.812893 -0.778377 0.000000
v 0.000000 -0.778377 0.797305
v -0.611401 -0.778377 0.739605
v -0.865178 -0.220213 0.960218
v -1.066669 -0.220213 0.000000
v 0.000000 -0.220213 1.017918
v -0.812893 -0.778377 0.503528
v -1.066669 -0.220213 0.642854
v 0.000000 -1.025009 0.447196
v 0.000000 -1.025009 0.000000
v -0.501227 -1.025009 0.000000
v -0.501227 -1.025009 0.447196
v -0.442449 -1.025009 0.516063
v 0.000000 -1.025009 0.532895
v 0.611401 0.778377 -0.739605
v 0.865178 0.000000 -0.960218
v 0.865178 0.220213 -0.960218
v 0.812893 0.778377 -0.503528
v 1.066669 0.000000 -0.642854
v 1.066669 0.220213 -0.642854
v 0.501227 1.025009 -0.447196
v 0.442449 1.025009 -0.516063
v 0.000000 0.778377 -0.797305
v -0.611401 0.778377 -0.739605
v 0.000000 0.000000 -1.017918
v -0.865178 0.000000 -0.960218
v -0.865178 0.220213 -0.960218
v 0.000000 0.220213 -1.017918
v -0.812893 0.778377 -0.503528
v 0.000000 0.000000 -0.642854
v -1.066669 0.000000 -0.642854
v -1.066669 0.220213 -0.642854
v 0.000000 1.025009 -0.447196
v -0.501227 1.025009 -0.447196
v -0.442449 1.025009 -0.516063
v 0.000000 1.025009 -0.532895
v 0.812893 0.778377 0.000000
v 0.611401 0.778377 0.739605
v 1.066669 0.000000 0.000000
v 0.865178 0.000000 0.960218
v 0.865178 0.220213 0.960218
v 1.066669 0.220213 0.000000
v 0.812893 0.778377 0.503528
v 1.066669 0.000000 0.642854
v 1.066669 0.220213 0.642854
v 0.501227 1.025009 0.000000
v 0.501227 1.025009 0.447196
v 0.442449 1.025009 0.516063
v -0.812893 0.778377 0.000000
v 0.000000 0.778377 0.797305
v -0.611401 0.778377 0.739605
v 0.000000 0.000000 1.017918
v 0.000000 0.000000 0.000000
v -1.066669 0.000000 0.000000
v -0.865178 0.000000 0.960218
v -0.865178 0.220213 0.960218
v -1.066669 0.220213 0.000000
v 0.000000 0.220213 1.017918
v -0.812893 0.778377 0.503528
v 0.000000 0.000000 0.642854
v -1.066669 0.000000 0.642854
v -1.066669 0.220213 0.642854
v 0.000000 1.025009 0.447196
v 0.000000 1.025009 0.000000
v -0.501227 1.025009 0.000000
v -0.501227 1.025009 0.447196
v -0.442449 1.025009 0.516063
v 0.000000 1.025009 0.532895
vn 0.6205 -0.7842 0.0000
vn 0.8442 0.0000 -0.5360
vn 0.0665 0.0000 -0.9978
vn 0.0720 -0.3807 -0.9219
vn 0.7061 -0.4868 -0.5142
vn 0.9103 -0.4139 0.0000
vn 1.0000 0.0000 0.0000
vn 0.0496 -0.7109 -0.7015
vn 0.0000 -1.0000 -0.0000
vn 0.5092 -0.7428 -0.4346
vn -0.6205 -0.7842 0.0000
vn -0.8442 0.0000 -0.5360
vn -0.0665 0.0000 -0.9978
vn -0.0720 -0.3807 -0.9219
vn -0.7061 -0.4868 -0.5142
vn -0.9103 -0.4139 0.0000
vn -1.0000 0.0000 0.0000
vn -0.0496 -0.7109 -0.7015
vn -0.5092 -0.7428 -0.4346
vn 0.8442 0.0000 0.5360
vn 0.0665 0.0000 0.9978
vn 0.0720 -0.3807 0.9219
vn 0.7061 -0.4868 0.5142
vn 0.0496 -0.7109 0.7015
vn 0.5092 -0.7428 0.4346
vn -0.8442 0.0000 0.5360
vn -0.0665 0.0000 0.9978
vn -0.0720 -0.3807 0.9219
vn -0.7061 -0.4868 0.5142
vn -0.0496 -0.7109 0.7015
vn -0.5092 -0.7428 0.4346
vn 0.6205 0.7842 0.0000
vn 0.0720 0.3807 -0.9219
vn 0.7061 0.4868 -0.5142
vn 0.9103 0.4139 0.0000
vn 0.0496 0.7109 -0.7015
vn 0.0000 1.0000 0.0000
vn 0.5092 0.7428 -0.4346
vn -0.6205 0.7842 0.0000
vn -0.0720 0.3807 -0.9219
vn -0.7061 0.4868 -0.5142
vn -0.9103 0.4139 0.0000
vn -0.0496 0.7109 -0.7015
vn -0.5092 0.7428 -0.4346
vn 0.0720 0.3807 0.9219
vn 0.7061 0.4868 0.5142
vn 0.0496 0.7109 0.7015
vn 0.5092 0.7428 0.4346
vn -0.0720 0.3807 0.9219
vn -0.7061 0.4868 0.5142
vn -0.0496 0.7109 0.7015
vn -0.5092 0.7428 0.4346
usemtl None
s off
f 3//1 17//1 23//1 5//1
f 4//2 2//2 41//2 44//2
f 2//3 10//3 50//3 41//3
f 1//4 7//4 10//4 2//4
f 3//5 1//5 2//5 4//5
f 17//6 3//6 4//6 20//6
f 20//7 4//7 44//7 64//7
f 7//8 1//8 6//8 16//8
f 13//9 16//9 6//9 5//9
f 35//9 13//9 5//9 23//9
f 1//10 3//10 5//10 6//10
f 11//11 14//11 36//11 26//11
f 12//12 56//12 51//12 9//12
f 9//13 51//13 50//13 10//13
f 8//14 9//14 10//14 7//14
f 11//15 12//15 9//15 8//15
f 26//16 30//16 12//16 11//16
f 30//17 79//17 56//17 12//17
f 7//18 16//18 15//18 8//18
f 13//9 14//9 15//9 16//9
f 35//9 36//9 14//9 13//9
f 8//19 15//19 14//19 11//19
f 21//1 24//1 23//1 17//1
f 22//20 69//20 65//20 19//20
f 19//21 65//21 77//21 31//21
f 18//22 19//22 31//22 27//22
f 21//23 22//23 19//23 18//23
f 17//6 20//6 22//6 21//6
f 20//7 64//7 69//7 22//7
f 27//24 39//24 25//24 18//24
f 34//9 24//9 25//9 39//9
f 35//9 23//9 24//9 34//9
f 18//25 25//25 24//25 21//25
f 32//11 26//11 36//11 37//11
f 33//26 29//26 80//26 86//26
f 29//27 31//27 77//27 80//27
f 28//28 27//28 31//28 29//28
f 32//29 28//29 29//29 33//29
f 26//16 32//16 33//16 30//16
f 30//17 33//17 86//17 79//17
f 27//30 28//30 38//30 39//30
f 34//9 39//9 38//9 37//9
f 35//9 34//9 37//9 36//9
f 28//31 32//31 37//31 38//31
f 43//32 46//32 71//32 62//32
f 55//9 50//9 41//9 44//9
f 45//2 44//2 41//2 42//2
f 42//3 41//3 50//3 53//3
f 40//33 42//33 53//33 48//33
f 43//34 45//34 42//34 40//34
f 62//35 67//35 45//35 43//35
f 67//7 64//7 44//7 45//7
f 78//9 55//9 44//9 64//9
f 48//36 61//36 47//36 40//36
f 58//37 46//37 47//37 61//37
f 89//37 71//37 46//37 58//37
f 40//38 47//38 46//38 43//38
f 54//39 74//39 90//39 59//39
f 55//9 56//9 51//9 50//9
f 57//12 52//12 51//12 56//12
f 52//13 53//13 50//13 51//13
f 49//40 48//40 53//40 52//40
f 54//41 49//41 52//41 57//41
f 74//42 54//42 57//42 82//42
f 82//17 57//17 56//17 79//17
f 78//9 79//9 56//9 55//9
f 48//43 49//43 60//43 61//43
f 58//37 61//37 60//37 59//37
f 89//37 58//37 59//37 90//37
f 49//44 54//44 59//44 60//44
f 68//32 62//32 71//32 72//32
f 85//9 69//9 65//9 77//9
f 70//20 66//20 65//20 69//20
f 66//21 83//21 77//21 65//21
f 63//45 75//45 83//45 66//45
f 68//46 63//46 66//46 70//46
f 62//35 68//35 70//35 67//35
f 67//7 70//7 69//7 64//7
f 78//9 64//9 69//9 85//9
f 75//47 63//47 73//47 93//47
f 88//37 93//37 73//37 72//37
f 89//37 88//37 72//37 71//37
f 63//48 68//48 72//48 73//48
f 84//39 91//39 90//39 74//39
f 85//9 77//9 80//9 86//9
f 87//26 86//26 80//26 81//26
f 81//27 80//27 77//27 83//27
f 76//49 81//49 83//49 75//49
f 84//50 87//50 81//50 76//50
f 74//42 82//42 87//42 84//42
f 82//17 79//17 86//17 87//17
f 78//9 85//9 86//9 79//9
f 75//51 93//51 92//51 76//51
f 88//37 91//37 92//37 93//37
f 89//37 90//37 91//37 88//37
f 76//52 92//52 91//52 84//52
