# Blender v2.79 (sub 0) OBJ File: 'test.obj'
# www.blender.org
mtllib test.mtl
o Cube
v 6.160148 -6.160148 -6.160148
v 6.160148 -6.160148 6.160148
v -6.160149 -6.160148 6.160147
v -6.160146 -6.160148 -6.160151
v 6.160151 6.160148 -6.160145
v 6.160144 6.160148 6.160152
v -6.160151 6.160148 6.160146
v -6.160148 6.160148 -6.160148
vn 0.0000 -1.0000 -0.0000
vn 0.0000 1.0000 0.0000
vn 1.0000 0.0000 0.0000
vn -0.0000 -0.0000 1.0000
vn -1.0000 -0.0000 -0.0000
vn 0.0000 0.0000 -1.0000
usemtl Material
s off
f 1//1 2//1 3//1 4//1
f 5//2 8//2 7//2 6//2
f 1//3 5//3 6//3 2//3
f 2//4 6//4 7//4 3//4
f 3//5 7//5 8//5 4//5
f 5//6 1//6 4//6 8//6
